<svg width="0" height="0" class="hidden">
  <symbol xmlns="http://www.w3.org/2000/svg" viewBox="0 0 384 512" id="mobile-screen-button">
    <path d="M304 0H80C44.654 0 16 28.654 16 64V448C16 483.346 44.654 512 80 512H304C339.346 512 368 483.346 368 448V64C368 28.654 339.346 0 304 0ZM192 480C174.25 480 160 465.75 160 448S174.25 416 192 416S224 430.25 224 448S209.75 480 192 480ZM304 64V384H80V64H304Z"></path>
  </symbol>
  <symbol xmlns="http://www.w3.org/2000/svg" viewBox="0 0 576 512" id="money-check">
    <path d="M528 64H48C21.6 64 0 85.6 0 112V400C0 426.51 21.49 448 48 448H528C554.51 448 576 426.51 576 400V112C576 85.49 554.51 64 528 64ZM256 336C256 344.837 248.837 352 240 352H80C71.163 352 64 344.837 64 336V336C64 327.163 71.163 320 80 320H240C248.837 320 256 327.163 256 336V336ZM320 240C320 248.837 312.837 256 304 256H80C71.163 256 64 248.837 64 240V240C64 231.163 71.163 224 80 224H304C312.837 224 320 231.163 320 240V240ZM512 336C512 344.837 504.837 352 496 352H400C391.163 352 384 344.837 384 336V336C384 327.163 391.163 320 400 320H496C504.837 320 512 327.163 512 336V336ZM512 240C512 248.836 504.836 256 496 256H400C391.164 256 384 248.836 384 240V208C384 199.162 391.164 192 400 192H496C504.836 192 512 199.162 512 208V240Z"></path>
  </symbol>
  <symbol xmlns="http://www.w3.org/2000/svg" viewBox="0 0 64 64" id="money-transfer">
    <g id="Ecommerce-transfer_money-buy-smartphone-hands">
      <path d="M56.293,14.293l1.414,1.414,4-4a1,1,0,0,0,0-1.414l-4-4L56.293,7.707,58.586,10H47v2H58.586Z"></path>
      <path d="M50.293,23.707l1.414-1.414L49.414,20H61V18H49.414l2.293-2.293-1.414-1.414-4,4a1,1,0,0,0,0,1.414Z"></path>
      <path d="M60.83,31.17a3.979,3.979,0,0,0-5.41-.21A3.966,3.966,0,0,0,52,29a3.56,3.56,0,0,0-1.31.23,3.839,3.839,0,0,0-1.26.74A4,4,0,0,0,46,28a3.953,3.953,0,0,0-2,.55V12a4,4,0,0,0-4-4,3.953,3.953,0,0,0-2,.55V5a3.009,3.009,0,0,0-3-3H11A3.009,3.009,0,0,0,8,5V25H7a5,5,0,0,0-5,5v4.09L4,55.05V61a1,1,0,0,0,1,1H27a1,1,0,0,0,1-1V55.32L31.72,50h2.15L35,53.17V61a1,1,0,0,0,1,1H56a1,1,0,0,0,1-1V53.17l4.59-12.86A7,7,0,0,0,62,37.96V34A4,4,0,0,0,60.83,31.17ZM26,60H6V56H26Zm.48-6H5.91L4,34V30a3.009,3.009,0,0,1,3-3h7a3,3,0,1,1,0,6H9a1,1,0,0,0-1,1V47a3.009,3.009,0,0,0,3,3H29.28ZM11,48a1,1,0,0,1-1-1V44H28V42H10V35h4a5,5,0,0,0,0-10H10V5a1,1,0,0,1,1-1H35a1,1,0,0,1,1,1V25.56A3.927,3.927,0,0,0,33.99,25,4,4,0,0,0,30,28.99v8.97a7.1,7.1,0,0,0,.41,2.36L33.15,48ZM40,60H37V54h3Zm5,0H42V54h3Zm5,0H47V54h3Zm5,0H52V54h3Zm5-22.04a5.073,5.073,0,0,1-.29,1.68L55.3,52H36.7L32.29,39.65A5.176,5.176,0,0,1,32,37.96V28.99A2,2,0,0,1,36,29v8h2V12a2.015,2.015,0,0,1,2-2,2.006,2.006,0,0,1,2,2V37h2V32a2.015,2.015,0,0,1,2-2,2.006,2.006,0,0,1,2,2v5h2V33a1.983,1.983,0,0,1,.59-1.41,1.8,1.8,0,0,1,.77-.48A1.868,1.868,0,0,1,52,31a2.006,2.006,0,0,1,2,2v5h2V34a2.006,2.006,0,0,1,2-2,2.015,2.015,0,0,1,2,2Z"></path>
      <path d="M23,6A10,10,0,1,0,33,16,10.016,10.016,0,0,0,23,6Zm0,18a8,8,0,1,1,8-8A8.011,8.011,0,0,1,23,24Z"></path>
      <path d="M26,18a3.01,3.01,0,0,1-2,2.82V22H22V20.82A3.01,3.01,0,0,1,20,18h2a1,1,0,1,0,1-1,3,3,0,0,1-1-5.82V10h2v1.18A3.01,3.01,0,0,1,26,14H24a1,1,0,1,0-1,1A3.009,3.009,0,0,1,26,18Z"></path>
    </g>
  </symbol>
  <symbol version="1.1" id="payment-method" xmlns="http://www.w3.org/2000/svg" xmlns:xlink="http://www.w3.org/1999/xlink" x="0px" y="0px" xml:space="preserve" viewBox="0 0 512 512">
    <g>
      <g>
        <path d="M172.55,391.902c-0.13-0.64-0.32-1.27-0.57-1.88c-0.25-0.6-0.56-1.18-0.92-1.72c-0.36-0.55-0.78-1.06-1.24-1.52
			c-0.46-0.46-0.97-0.88-1.52-1.24c-0.54-0.36-1.12-0.67-1.73-0.92c-0.6-0.25-1.23-0.45-1.87-0.57c-1.29-0.26-2.62-0.26-3.9,0
			c-0.64,0.12-1.27,0.32-1.88,0.57c-0.6,0.25-1.18,0.56-1.72,0.92c-0.55,0.36-1.06,0.78-1.52,1.24c-0.46,0.46-0.88,0.97-1.24,1.52
			c-0.37,0.54-0.67,1.12-0.92,1.72c-0.25,0.61-0.45,1.24-0.57,1.88c-0.13,0.64-0.2,1.3-0.2,1.95c0,0.65,0.07,1.31,0.2,1.95
			c0.12,0.64,0.32,1.27,0.57,1.87c0.25,0.61,0.55,1.19,0.92,1.73c0.36,0.55,0.78,1.06,1.24,1.52c0.46,0.46,0.97,0.88,1.52,1.24
			c0.54,0.361,1.12,0.671,1.72,0.921c0.61,0.25,1.24,0.45,1.88,0.57c0.64,0.13,1.3,0.2,1.95,0.2c0.65,0,1.31-0.07,1.95-0.2
			c0.64-0.12,1.27-0.32,1.87-0.57c0.61-0.25,1.19-0.561,1.73-0.921c0.55-0.36,1.06-0.78,1.52-1.24c0.46-0.46,0.88-0.97,1.24-1.52
			c0.36-0.54,0.67-1.12,0.92-1.73c0.25-0.6,0.44-1.23,0.57-1.87s0.2-1.3,0.2-1.95S172.68,392.542,172.55,391.902z"></path>
      </g>
    </g>
    <g>
      <g>
        <path d="M459.993,394.982c-0.039-0.1-0.079-0.199-0.121-0.297c-9.204-21.537-30.79-29.497-56.336-20.772l-69.668,19.266
			c-4.028-12.198-14.075-22.578-28.281-27.85c-0.088-0.032-0.176-0.064-0.265-0.094l-76.581-25.992
			c-6.374-8.239-26.34-29.321-63.723-29.321c-26.125,0-49.236,17.922-62.458,37.457H10c-5.523,0-10,4.477-10,10v126.077
			c0,5.523,4.477,10,10,10h59.457c5.523,0,10-4.477,10-10v-8.634h27.883c5.523,0,10-4.477,10-10v-2.878
			c16.254,1.418,21.6,4.501,36.528,13.109c11.48,6.62,28.831,16.625,60.077,30.674c0.145,0.065,0.292,0.127,0.439,0.185
			c5.997,2.359,17.72,6.065,32.173,6.065c10.06,0,21.445-1.797,33.131-7.094l153.991-55.136c0.274-0.098,0.544-0.208,0.808-0.33
			C449.204,442.646,471.135,423.563,459.993,394.982z M59.457,473.455H20V367.378h39.457V473.455z M97.34,454.821H79.457v-87.443
			H97.34V454.821z M426.496,431.074l-153.922,55.111c-0.135,0.048-0.318,0.12-0.451,0.174c-0.135,0.055-0.27,0.113-0.403,0.174
			c-21.437,9.852-41.814,3.954-49.8,0.849c-30.182-13.581-46.291-22.87-58.061-29.657c-16.364-9.436-24.249-13.984-46.519-15.823
			V361.36c9.479-15.536,27.861-31.439,47.679-31.439c33.986,0,48.387,22.105,48.953,22.997c1.221,1.986,3.098,3.483,5.305,4.232
			l79.475,26.974c12.693,4.764,19.401,15.634,16.318,26.474c-1.423,5.006-4.711,9.158-9.257,11.691
			c-4.507,2.511-9.717,3.132-14.683,1.758l-89.593-28.392c-5.268-1.669-10.886,1.247-12.554,6.512
			c-1.669,5.265,1.247,10.885,6.512,12.554l89.749,28.441c0.095,0.03,0.19,0.059,0.286,0.086c3.583,1.019,7.231,1.523,10.857,1.523
			c6.638,0,13.203-1.691,19.161-5.011c9.213-5.133,15.875-13.547,18.759-23.692c0.23-0.81,0.434-1.62,0.611-2.43l75.083-20.8
			c10.844-3.704,25.079-5.039,31.417,9.558C447.978,419.533,430.928,428.96,426.496,431.074z"></path>
      </g>
    </g>
    <g>
      <g>
        <path d="M359.06,131.543c-0.13-0.64-0.32-1.27-0.58-1.88c-0.25-0.6-0.55-1.18-0.92-1.72c-0.36-0.55-0.78-1.06-1.24-1.52
			c-0.46-0.46-0.97-0.88-1.52-1.24c-0.54-0.36-1.12-0.67-1.72-0.92c-0.61-0.25-1.24-0.45-1.87-0.57c-1.29-0.26-2.62-0.26-3.91,0
			c-0.64,0.12-1.27,0.32-1.87,0.57c-0.61,0.25-1.19,0.56-1.73,0.92c-0.55,0.36-1.06,0.78-1.52,1.24c-0.46,0.46-0.88,0.97-1.24,1.52
			c-0.36,0.54-0.67,1.12-0.92,1.72c-0.25,0.61-0.45,1.24-0.57,1.88c-0.13,0.64-0.2,1.3-0.2,1.95c0,0.65,0.07,1.31,0.2,1.95
			c0.12,0.64,0.32,1.27,0.57,1.87c0.25,0.61,0.56,1.19,0.92,1.73c0.36,0.55,0.78,1.06,1.24,1.52c0.46,0.46,0.97,0.88,1.52,1.24
			c0.54,0.36,1.12,0.67,1.73,0.92c0.6,0.25,1.23,0.44,1.87,0.57s1.3,0.2,1.95,0.2c0.65,0,1.31-0.07,1.96-0.2
			c0.63-0.13,1.26-0.32,1.87-0.57c0.6-0.25,1.18-0.56,1.72-0.92c0.55-0.36,1.06-0.78,1.52-1.24c0.46-0.46,0.88-0.97,1.24-1.52
			c0.37-0.54,0.67-1.12,0.92-1.73c0.26-0.6,0.45-1.23,0.58-1.87c0.13-0.64,0.19-1.3,0.19-1.95
			C359.25,132.843,359.19,132.183,359.06,131.543z"></path>
      </g>
    </g>
    <g>
      <g>
        <path d="M502,33.891h-59.457c-5.523,0-10,4.477-10,10v8.634H404.66c-5.523,0-10,4.477-10,10v2.878
			c-16.254-1.419-21.6-4.501-36.527-13.109c-11.48-6.62-28.831-16.625-60.078-30.674c-0.145-0.066-0.291-0.127-0.44-0.185
			c-10.171-4.002-36.828-11.876-65.299,1.027l-40.24,14.408L158.157,2.952c-3.905-3.905-10.237-3.905-14.142,0L32.657,114.309
			c-3.602,3.603-4.293,9.85,0,14.143l190.287,190.287c3.045,3.046,10.175,3.967,14.143,0l101.665-101.664
			c2.643,0.228,5.386,0.351,8.229,0.351c26.126,0,49.236-17.922,62.457-37.456H502c5.523,0,10-4.477,10-10V43.891
			C512,38.368,507.523,33.891,502,33.891z M151.085,24.165l22.792,22.792c-6.775,4.19-14.608,6.432-22.792,6.432
			c-8.185,0-16.017-2.241-22.792-6.432L151.085,24.165z M76.663,144.173L53.871,121.38l22.792-22.792
			c4.19,6.775,6.432,14.608,6.432,22.792C83.095,129.564,80.854,137.397,76.663,144.173z M230.016,297.525l-22.788-22.788
			c13.913-8.586,31.661-8.586,45.575,0L230.016,297.525z M267.211,260.331c-22.098-16.03-52.292-16.03-74.39,0L91.07,158.579
			c7.809-10.74,12.025-23.641,12.025-37.199c0-13.559-4.215-26.459-12.025-37.199l22.817-22.816
			c10.74,7.809,23.64,12.025,37.199,12.025c13.559,0,26.459-4.216,37.199-12.025l21.629,21.629
			c-4.667,0.689-9.218,2.227-13.462,4.592c-7.168,3.994-12.792,9.975-16.294,17.211c-11.28,2.089-21.723,7.55-29.915,15.741
			c-22.225,22.226-22.225,58.389,0.001,80.615c11.112,11.112,25.709,16.669,40.307,16.669c14.597,0,29.195-5.556,40.308-16.669
			c7.23-7.23,12.295-16.116,14.832-25.8l33.764,11.459c-3.801,17.608,0.092,36.132,10.593,50.682L267.211,260.331z M206.413,162.018
			c0.088,0.032,0.176,0.064,0.265,0.094l19.996,6.787c-1.51,6.815-4.927,13.081-9.957,18.112c-14.428,14.426-37.904,14.428-52.33,0
			c-14.428-14.427-14.428-37.902,0-52.33c3.48-3.482,7.587-6.203,12.062-8.048C178.295,141.995,189.356,155.688,206.413,162.018z
			 M304.457,223.084c-3.86-6.29-6.044-13.469-6.389-20.796c4.79,3.463,10.644,6.856,17.636,9.549L304.457,223.084z M394.659,165.983
			c-9.478,15.538-27.86,31.441-47.678,31.441c-3.708,0-7.183-0.264-10.432-0.734c-0.013-0.002-0.026-0.004-0.039-0.006
			c-21.596-3.137-33.213-15.411-37.042-20.271c-0.204-0.3-1.073-1.437-1.202-1.626c-1.165-2.082-3.075-3.756-5.511-4.583
			l-79.508-26.985c-12.688-4.762-19.395-15.627-16.321-26.463c0.002-0.007,0.004-0.014,0.006-0.021
			c0.003-0.008,0.005-0.017,0.007-0.025c1.429-4.99,4.711-9.129,9.247-11.656c4.506-2.511,9.715-3.134,14.683-1.757l89.593,28.391
			c5.266,1.671,10.886-1.247,12.554-6.512c1.668-5.265-1.247-10.885-6.512-12.554l-71.255-22.58l-0.622-0.622
			c-0.006-0.006-0.012-0.013-0.019-0.019l-36.89-36.89l31.708-11.354c0.107-0.039,0.239-0.088,0.345-0.131
			c0.027-0.011,0.079-0.031,0.105-0.042c0.136-0.055,0.27-0.113,0.403-0.174c21.436-9.852,41.812-3.955,49.799-0.849
			c30.183,13.581,46.293,22.87,58.063,29.657c16.364,9.437,24.249,13.984,46.518,15.823V165.983z M432.543,159.968H414.66V72.525
			h17.883V159.968z M492,159.968h-39.457V53.891H492V159.968z"></path>
      </g>
    </g>
    <g></g>
    <g></g>
    <g></g>
    <g></g>
    <g></g>
    <g></g>
    <g></g>
    <g></g>
    <g></g>
    <g></g>
    <g></g>
    <g></g>
    <g></g>
    <g></g>
    <g></g>
  </symbol>
  <symbol xmlns="http://www.w3.org/2000/svg" viewBox="0 0 16 11" id="tick">
    <defs></defs>
    <path id="Shape_10_copy_5" d="M2,4L6,8l8-8"></path>
  </symbol>
  <symbol version="1.1" id="withdrawal" xmlns="http://www.w3.org/2000/svg" xmlns:xlink="http://www.w3.org/1999/xlink" x="0px" y="0px" xml:space="preserve" viewBox="0 0 386.08 386.08">
    <g>
      <g>
        <path d="M368.08,4.08H18c-9.941,0-18,8.059-18,18v53.2c0,9.941,8.059,18,18,18h53.52v72C62.08,176.08,22.4,222.96,17.6,254
			c-0.03,0.399-0.03,0.801,0,1.2V374c0,4.418,3.582,8,8,8h96.96c2.618-0.004,5.068-1.289,6.56-3.44l40.96-58.96
			c0.512-0.757,0.891-1.595,1.12-2.48c0-1.28,4.24-15.52,8.96-35.04h126.4c4.418,0,8-3.582,8-8V93.28h53.52c9.941,0,18-8.059,18-18
			v-53.2C386.08,12.139,378.021,4.08,368.08,4.08z M180.56,197.04c-5.898,38.602-14.045,76.828-24.4,114.48l-37.84,54.4h-84.8
			V256.16c3.12-18.24,22.64-46.24,38-65.52v83.44c0,4.418,3.582,8,8,8h28.88c0.986-0.008,1.963-0.197,2.88-0.56l0.88-0.48
			c0.573-0.282,1.11-0.631,1.6-1.04l0.72-0.8c0.371-0.444,0.693-0.927,0.96-1.44l0.48-1.04c0,0,0,0,0-0.56
			c8-29.6,25.44-80.72,38.64-92.08c8.96-8,14.16-8.88,16.4-8.88c1.69-0.038,3.296,0.735,4.32,2.08
			C179.199,183.091,181.058,190.048,180.56,197.04z M298.56,266.08H184c4.96-21.68,10-46.64,12.48-67.12
			c0.976-11.411-2.238-22.786-9.04-32c-4.005-4.678-9.841-7.392-16-7.44c-10.19,0.898-19.724,5.409-26.88,12.72
			c-18.56,16-36.32,74.32-42,94.16H87.52V57.04h211.04V266.08z M370.08,75.2c0,1.105-0.895,2-2,2h-53.52V57.04h14.48
			c4.418,0,8-3.582,8-8s-3.582-8-8-8h-272c-4.418,0-8,3.582-8,8s3.582,8,8,8H71.6V77.6H18c-1.105,0-2-0.895-2-2V22.08
			c0-1.105,0.895-2,2-2h350.08c1.105,0,2,0.895,2,2V75.2z"></path>
      </g>
    </g>
    <g></g>
    <g></g>
    <g></g>
    <g></g>
    <g></g>
    <g></g>
    <g></g>
    <g></g>
    <g></g>
    <g></g>
    <g></g>
    <g></g>
    <g></g>
    <g></g>
    <g></g>
  </symbol>
  <symbol xmlns="http://www.w3.org/2000/svg" viewBox="0 0 512 512" id="address-book">
    <path d="M272 288H208C163.82 288 128 323.816 128 368C128 376.836 135.164 384 144 384H336C344.836 384 352 376.836 352 368C352 323.816 316.184 288 272 288ZM240 256C275.348 256 304 227.346 304 192S275.348 128 240 128C204.656 128 176 156.654 176 192S204.656 256 240 256ZM496 320H480V416H496C504.836 416 512 408.836 512 400V336C512 327.164 504.836 320 496 320ZM496 64H480V160H496C504.836 160 512 152.836 512 144V80C512 71.164 504.836 64 496 64ZM496 192H480V288H496C504.836 288 512 280.836 512 272V208C512 199.164 504.836 192 496 192ZM384 0H96C60.654 0 32 28.652 32 64V448C32 483.346 60.654 512 96 512H384C419.346 512 448 483.346 448 448V64C448 28.652 419.346 0 384 0ZM400 448C400 456.836 392.836 464 384 464H96C87.164 464 80 456.836 80 448V64C80 55.162 87.164 48 96 48H384C392.836 48 400 55.162 400 64V448Z"></path>
  </symbol>
  <symbol xmlns="http://www.w3.org/2000/svg" viewBox="0 0 512 512" id="bank">
    <path d="M496 448H480V416C480 398.326 465.674 384 448 384V224H384V384H288V224H224V384H128V224H64V384C46.326 384 32 398.326 32 416V448H16C7.199 448 0 455.199 0 464V496C0 504.799 7.199 512 16 512H496C504.801 512 512 504.799 512 496V464C512 455.199 504.801 448 496 448ZM501.625 92.125L267.25 2.062C264.25 0.906 259.219 0 256 0C252.812 0 247.781 0.906 244.781 2.062L10.375 92.125C4.656 94.25 0 100.969 0 107.094V144C0 152.844 7.156 160 16 160H32V176C32 184.844 39.156 192 48 192H464C472.844 192 480 184.844 480 176V160H496C504.844 160 512 152.844 512 144V107.094C512 100.406 507.875 94.438 501.625 92.125ZM256 144C238.326 144 224 129.672 224 112C224 94.326 238.326 80 256 80S288 94.326 288 112C288 129.672 273.674 144 256 144Z"></path>
  </symbol>
  <symbol xmlns="http://www.w3.org/2000/svg" viewBox="0 0 576 512" id="browsers">
    <defs></defs>
    <path d="M96 192V352C96 387.346 124.654 416 160 416H512C547.346 416 576 387.346 576 352V192H96ZM172 128H212C218.625 128 224 122.625 224 116V76C224 69.375 218.625 64 212 64H172C165.375 64 160 69.375 160 76V116C160 122.625 165.375 128 172 128Z"></path>
    <path d="M512 0H160C124.654 0 96 28.654 96 64V192H576V64C576 28.654 547.346 0 512 0ZM224 116C224 122.625 218.625 128 212 128H172C165.375 128 160 122.625 160 116V76C160 69.375 165.375 64 172 64H212C218.625 64 224 69.375 224 76V116ZM512 116C512 122.625 506.625 128 500 128H268C261.375 128 256 122.625 256 116V76C256 69.375 261.375 64 268 64H500C506.625 64 512 69.375 512 76V116ZM48 432V96C21.49 96 0 117.492 0 144V448C0 483.344 28.654 512 64 512H432C458.51 512 480 490.508 480 464H80C62.326 464 48 449.672 48 432Z"></path>
  </symbol>
  <symbol xmlns="http://www.w3.org/2000/svg" viewBox="0 0 512 512" id="key">
    <path d="M336 0C238.797 0 160 78.797 160 176C160 190.715 162.004 204.93 165.406 218.594L9.375 374.625C3.371 380.629 0 388.766 0 397.254V496C0 504.836 7.164 512 16 512H112C120.836 512 128 504.836 128 496V448H176C184.836 448 192 440.836 192 432V384H249.375C253.617 384 257.688 382.312 260.688 379.312L293.406 346.594C307.07 349.992 321.281 352 336 352C433.203 352 512 273.203 512 176S433.203 0 336 0ZM376 176C353.906 176 336 158.094 336 136S353.906 96 376 96S416 113.906 416 136S398.094 176 376 176Z"></path>
  </symbol>
  <symbol xmlns="http://www.w3.org/2000/svg" viewBox="0 0 384 512" id="mobile-notch">
    <path d="M240 400H144C135.164 400 128 407.164 128 416S135.164 432 144 432H240C248.838 432 256 424.836 256 416S248.838 400 240 400ZM304 0H80C44.654 0 16 28.654 16 64V448C16 483.346 44.654 512 80 512H304C339.346 512 368 483.346 368 448V64C368 28.654 339.346 0 304 0ZM320 448C320 456.822 312.822 464 304 464H80C71.178 464 64 456.822 64 448V64C64 55.178 71.178 48 80 48H128V80C128 88.836 135.164 96 144 96H240C248.836 96 256 88.836 256 80V48H304C312.822 48 320 55.178 320 64V448Z"></path>
  </symbol>
</svg>